<svg preserveAspectRatio="none" width="100%" height="100%" overflow="visible" style="display: block;" viewBox="0 0 35 35" fill="none" xmlns="http://www.w3.org/2000/svg">
<g id="Frame">
<path id="Vector" d="M17.5 7C12.845 7 9.905 9.345 8.75 14C10.5 11.655 12.53 10.78 14.875 11.375C16.205 11.725 17.15 12.67 18.2 13.755C19.915 15.505 21.91 17.5 26.25 17.5C30.905 17.5 33.845 15.155 35 10.5C33.25 12.845 31.22 13.72 28.875 13.125C27.545 12.775 26.6 11.83 25.55 10.745C23.835 9.03 21.84 7 17.5 7ZM8.75 17.5C4.095 17.5 1.155 19.845 0 24.5C1.75 22.155 3.78 21.28 6.125 21.875C7.455 22.225 8.4 23.17 9.45 24.255C11.165 26.005 13.16 28 17.5 28C22.155 28 25.095 25.655 26.25 21C24.5 23.345 22.47 24.22 20.125 23.625C18.795 23.31 17.85 22.33 16.8 21.245C15.085 19.53 13.09 17.5 8.75 17.5Z" fill="var(--fill-0, #727272)"/>
</g>
</svg>
