<svg preserveAspectRatio="none" width="100%" height="100%" overflow="visible" style="display: block;" viewBox="0 0 35 34.818" fill="none" xmlns="http://www.w3.org/2000/svg">
<g id="Group">
<path id="Vector" d="M17.374 0C8.4889 0 9.04365 3.85315 9.04365 3.85315L9.05345 7.84525H17.5322V9.04365H5.68575C5.68575 9.04365 0 8.39895 0 17.3635C0 26.3287 4.96265 26.011 4.96265 26.011H7.92435V21.8512C7.92435 21.8512 7.7644 16.8882 12.8075 16.8882H21.217C21.217 16.8882 25.942 16.9649 25.942 12.3221V4.64555C25.942 4.64555 26.6595 0 17.374 0ZM12.6987 2.6845C12.8991 2.68432 13.0975 2.72364 13.2826 2.80023C13.4678 2.87682 13.636 2.98917 13.7777 3.13084C13.9193 3.27251 14.0317 3.44073 14.1083 3.62587C14.1849 3.81102 14.2242 4.00944 14.224 4.2098C14.2243 4.46081 14.1626 4.70801 14.0444 4.92945C13.9263 5.1509 13.7552 5.33974 13.5466 5.47921C13.3379 5.61868 13.098 5.70447 12.8482 5.72896C12.5983 5.75346 12.3464 5.71589 12.1145 5.6196C11.8355 5.50441 11.5971 5.30888 11.4294 5.05786C11.2618 4.80684 11.1726 4.51165 11.173 4.2098C11.1729 4.00943 11.2123 3.81099 11.2889 3.62585C11.3655 3.44071 11.4779 3.27249 11.6196 3.13082C11.7613 2.98915 11.9296 2.87681 12.1147 2.80022C12.2999 2.72364 12.4983 2.68432 12.6987 2.6845Z" fill="url(#paint0_linear_9_235)"/>
<path id="Vector_2" d="M17.626 34.818C26.5114 34.818 25.9567 30.9648 25.9567 30.9648L25.9469 26.9731H17.4678V25.774H29.3142C29.3142 25.774 35 26.4197 35 17.4541C35 8.4889 30.0373 8.80705 30.0373 8.80705H27.076V12.9671C27.076 12.9671 27.2359 17.9298 22.1928 17.9298H13.7827C13.7827 17.9298 9.058 17.8532 9.058 22.4959V30.1724C9.058 30.1724 8.3405 34.818 17.626 34.818ZM22.3017 32.1335C22.0507 32.1339 21.8035 32.0722 21.582 31.9541C21.3606 31.836 21.1717 31.665 21.0322 31.4563C20.8927 31.2476 20.8069 31.0078 20.7825 30.758C20.758 30.5082 20.7955 30.2562 20.8919 30.0244C21.007 29.7454 21.2026 29.5069 21.4536 29.3393C21.7046 29.1716 21.9998 29.0824 22.3017 29.0829C22.5527 29.0826 22.7999 29.1442 23.0213 29.2624C23.2428 29.3806 23.4316 29.5516 23.571 29.7603C23.7105 29.969 23.7962 30.209 23.8207 30.4588C23.8451 30.7086 23.8075 30.9606 23.7111 31.1924C23.5957 31.4712 23.4002 31.7095 23.1493 31.8771C22.8984 32.0447 22.6034 32.1337 22.3017 32.1335Z" fill="url(#paint1_linear_9_235)"/>
</g>
<defs>
<linearGradient id="paint0_linear_9_235" x1="3.3635" y1="3.1318" x2="20.7085" y2="20.3035" gradientUnits="userSpaceOnUse">
<stop stop-color="#387EB8"/>
<stop offset="1" stop-color="#366994"/>
</linearGradient>
<linearGradient id="paint1_linear_9_235" x1="14.0098" y1="14.1586" x2="32.6361" y2="31.7667" gradientUnits="userSpaceOnUse">
<stop stop-color="#FFE052"/>
<stop offset="1" stop-color="#FFC331"/>
</linearGradient>
</defs>
</svg>
