<svg preserveAspectRatio="none" width="100%" height="100%" overflow="visible" style="display: block;" viewBox="0 0 35 35" fill="none" xmlns="http://www.w3.org/2000/svg">
<g id="Frame" clip-path="url(#clip0_9_269)">
<path id="Vector" d="M33.1555 10.2617C33.1555 9.67506 33.0299 9.15635 32.7761 8.71115C32.5266 8.27365 32.1531 7.90686 31.6526 7.61671C27.5173 5.23216 23.3789 2.85566 19.2454 0.469706C18.1314 -0.173944 17.0509 -0.150494 15.9449 0.502256C14.2992 1.47281 6.0599 6.19326 3.60465 7.61531C2.5935 8.20051 2.1014 9.09651 2.1014 10.261C2.1 15.0553 2.10175 19.8496 2.1 24.6439C2.1 25.2179 2.2204 25.7264 2.46295 26.165C2.7125 26.6161 3.0912 26.9931 3.60395 27.2895C6.05885 28.7116 14.2996 33.432 15.9449 34.4026C17.0509 35.0553 18.1317 35.0788 19.2461 34.4351C23.3796 32.0488 27.5184 29.672 31.6537 27.2881C32.1661 26.9917 32.5447 26.6144 32.7943 26.1639C33.0365 25.7254 33.1569 25.2168 33.1572 24.6428C33.1572 24.6428 33.1573 15.056 33.1555 10.2617Z" fill="var(--fill-0, #5C8DBC)"/>
<path id="Vector_2" d="M17.676 17.4062L2.46295 26.1653C2.7125 26.6165 3.0912 26.9934 3.60395 27.2899C6.05885 28.7119 14.2996 33.4324 15.945 34.4029C17.051 35.056 18.1317 35.0791 19.2461 34.4358C23.3796 32.0488 27.5184 29.6723 31.6536 27.2888C32.166 26.992 32.5447 26.6147 32.7943 26.1642L17.676 17.4062Z" fill="var(--fill-0, #1A4674)"/>
<path id="Vector_3" d="M13.1702 20.0008C14.0557 21.546 15.7196 22.5883 17.6284 22.5883C19.5492 22.5883 21.2229 21.5327 22.1035 19.971L17.676 17.4062L13.1702 20.0008Z" fill="var(--fill-0, #1A4674)"/>
<path id="Vector_4" d="M33.1555 10.2624C33.1555 9.6754 33.0299 9.1567 32.7761 8.71185L17.6761 17.4055L32.7943 26.1639C33.0365 25.7257 33.1569 25.2168 33.1573 24.6428C33.1573 24.6428 33.1573 15.0567 33.1555 10.2624Z" fill="var(--fill-0, #1B598E)"/>
<path id="Vector_5" d="M32.3243 18.032H31.143V19.2136H29.9614V18.032H28.7801V16.8508H29.9614V15.6695H31.143V16.8508H32.3243V18.032ZM28.0137 18.032H26.8324V19.2136H25.6508V18.032H24.4696V16.8508H25.6508V15.6695H26.8324V16.8508H28.0137V18.032Z" fill="var(--fill-0, white)"/>
<path id="Vector_6" d="M22.1039 19.971C21.223 21.5331 19.5493 22.5887 17.6285 22.5887C15.7196 22.5887 14.0553 21.546 13.1702 20.0008C12.7254 19.2253 12.4919 18.3467 12.4929 17.4528C12.4929 14.6164 14.7924 12.3172 17.6285 12.3172C19.5255 12.3172 21.181 13.3465 22.0703 14.8761L26.5594 12.2913C24.7751 9.2113 21.4442 7.1393 17.6288 7.1393C11.9326 7.1393 7.315 11.7569 7.315 17.4528C7.315 19.3218 7.812 21.0739 8.68105 22.5855C10.4605 25.6816 13.8016 27.7666 17.6288 27.7666C21.4631 27.7666 24.8087 25.6732 26.586 22.568L22.1039 19.971Z" fill="var(--fill-0, white)"/>
</g>
<defs>
<clipPath id="clip0_9_269">
<rect width="35" height="35" fill="white"/>
</clipPath>
</defs>
</svg>
