<svg preserveAspectRatio="none" width="100%" height="100%" overflow="visible" style="display: block;" viewBox="0 0 25.8426 35.012" fill="none" xmlns="http://www.w3.org/2000/svg">
<g id="Group">
<path id="Vector" d="M8.36631 27.055C8.36631 27.055 7.03631 27.825 9.31131 28.105C12.0763 28.42 13.5113 28.385 16.5563 27.79C16.5563 27.79 17.3613 28.28 18.4813 28.735C11.6213 31.675 2.97631 28.56 8.36631 27.055ZM7.52631 23.24C7.52631 23.24 6.02131 24.36 8.33131 24.57C11.3063 24.885 13.6163 24.885 17.6763 24.115C17.6763 24.115 18.2363 24.675 19.1113 24.99C10.8163 27.44 1.57631 25.2 7.52631 23.24Z" fill="var(--fill-0, #777777)"/>
<path id="Vector_2" d="M14.5613 16.73C16.2413 18.69 14.1063 20.44 14.1063 20.44C14.1063 20.44 18.3763 18.235 16.4163 15.47C14.5613 12.88 13.1613 11.585 20.7913 7.175C20.8263 7.14 8.85631 10.15 14.5613 16.73Z" fill="var(--fill-0, #878787)"/>
<path id="Vector_3" d="M23.6263 29.89C23.6263 29.89 24.6063 30.695 22.5413 31.325C18.5863 32.515 6.09131 32.9 2.59131 31.36C1.33131 30.8 3.67631 30.065 4.41131 29.89C5.18131 29.715 5.60131 29.75 5.60131 29.75C4.20131 28.77 -3.35869 31.675 1.75131 32.515C15.7513 34.825 27.2663 31.535 23.6263 29.89ZM8.99631 19.25C8.99631 19.25 2.62631 20.755 6.75631 21.315C8.50631 21.56 11.9363 21.49 15.1563 21.21C17.7813 21 20.4413 20.51 20.4413 20.51C20.4413 20.51 19.4963 20.895 18.8313 21.35C12.3563 23.065 -0.103689 22.26 3.50131 20.51C6.51131 19.11 8.99631 19.25 8.99631 19.25ZM20.4063 25.655C26.9863 22.26 23.9413 18.97 21.8063 19.39C21.2813 19.495 21.0713 19.6 21.0713 19.6C21.0713 19.6 21.2813 19.285 21.6313 19.18C25.8313 17.71 29.0513 23.52 20.2663 25.83C20.2663 25.83 20.3713 25.725 20.4063 25.655Z" fill="var(--fill-0, #777777)"/>
<path id="Vector_4" d="M16.4513 0C16.4513 0 20.0913 3.64 12.9863 9.24C7.31631 13.72 11.6913 16.275 12.9863 19.215C9.66131 16.24 7.24631 13.58 8.85631 11.13C11.2713 7.525 17.9213 5.775 16.4513 0Z" fill="var(--fill-0, #878787)"/>
<path id="Vector_5" d="M9.62631 34.895C15.9263 35.315 25.6213 34.685 25.8313 31.675C25.8313 31.675 25.3763 32.795 20.6163 33.705C15.2263 34.72 8.61131 34.615 4.65631 33.95C4.69131 33.95 5.49631 34.615 9.62631 34.895Z" fill="var(--fill-0, #777777)"/>
</g>
</svg>
