<svg preserveAspectRatio="none" width="100%" height="100%" overflow="visible" style="display: block;" viewBox="0 0 35 35" fill="none" xmlns="http://www.w3.org/2000/svg">
<g id="Group">
<path id="Vector" d="M0 0H35V35H0V0Z" fill="var(--fill-0, #017ACB)"/>
<path id="Vector_2" d="M16.8056 12.9608H18.4845V15.8596H13.945V28.7546L13.825 28.7875C13.6608 28.8313 11.501 28.8313 11.0358 28.7819L10.6641 28.7494V15.8592H6.125V12.9612L7.5635 12.9444C8.351 12.9339 10.374 12.9339 12.0585 12.9444C13.7431 12.9556 15.8756 12.9608 16.8056 12.9608ZM29.6191 27.3875C28.9516 28.0931 28.2352 28.4865 27.0431 28.8096C26.5233 28.9517 26.4359 28.9569 25.2658 28.9517C24.0954 28.9461 24.0023 28.9461 23.4336 28.7984C21.9625 28.4211 20.7757 27.6829 19.9665 26.6382C19.7369 26.3431 19.3595 25.7306 19.3595 25.654C19.3595 25.6319 19.4142 25.5829 19.4852 25.55C19.5563 25.5171 19.7039 25.424 19.8243 25.3533C19.9444 25.2819 20.1631 25.1507 20.3108 25.0744C20.4585 24.9974 20.8849 24.746 21.2569 24.5217C21.629 24.2977 21.9681 24.1171 22.0062 24.1171C22.0447 24.1171 22.1158 24.1938 22.1704 24.2869C22.4984 24.8392 23.2641 25.5444 23.8056 25.7849C24.1391 25.9273 24.8773 26.0859 25.2329 26.0859C25.5609 26.0859 26.1625 25.9438 26.4852 25.7961C26.8296 25.6375 27.0046 25.479 27.2125 25.1619C27.3546 24.9375 27.3711 24.8773 27.3658 24.4507C27.3658 24.0569 27.3438 23.9477 27.2346 23.7671C26.9283 23.2642 26.5125 23.0017 24.8283 22.2579C23.0888 21.4869 22.3069 21.0273 21.6727 20.4092C21.2023 19.95 21.1092 19.8247 20.8142 19.25C20.4313 18.5115 20.3819 18.2711 20.3767 17.1721C20.3711 16.4007 20.3875 16.1494 20.4694 15.8869C20.5846 15.4931 20.9563 14.7329 21.1257 14.5415C21.4757 14.1313 21.6017 14.0056 21.8477 13.803C22.5915 13.1905 23.751 12.7859 24.8612 12.7477C24.9868 12.7477 25.4023 12.7694 25.7908 12.7967C26.9063 12.8898 27.6664 13.1632 28.3993 13.7487C28.9516 14.1862 29.7881 15.2142 29.7062 15.3507C29.6516 15.4329 27.4698 16.8875 27.3273 16.9313C27.2398 16.9586 27.1796 16.9257 27.0596 16.7836C26.3158 15.8921 26.0148 15.7007 25.2931 15.6569C24.7789 15.6244 24.5056 15.6842 24.1608 15.9142C23.8003 16.1546 23.6253 16.5211 23.6253 17.0296C23.6306 17.7734 23.9148 18.1234 24.9648 18.6431C25.6431 18.9767 26.2227 19.25 26.2664 19.25C26.3322 19.25 27.7375 19.95 28.1039 20.1688C29.8102 21.1698 30.5049 22.1977 30.6852 23.9698C30.8164 25.304 30.4395 26.5234 29.6191 27.3875Z" fill="var(--fill-0, white)"/>
</g>
</svg>
