<svg preserveAspectRatio="none" width="100%" height="100%" overflow="visible" style="display: block;" viewBox="0 0 34.9674 25.13" fill="none" xmlns="http://www.w3.org/2000/svg">
<g id="Group">
<path id="Vector" d="M34.6524 9.52C34.5474 9.45 33.6724 8.785 31.8174 8.785C31.3274 8.785 30.8374 8.82 30.3474 8.925C29.9974 6.44 27.9324 5.25 27.8274 5.18L27.3374 4.9L27.0224 5.39C26.6024 6.02 26.3224 6.72 26.1474 7.49C25.7974 8.89 26.0074 10.22 26.7424 11.375C25.8674 11.865 24.4674 11.97 24.1874 12.005H1.08739C0.49239 11.935 0.00238966 12.425 0.00238966 13.02C-0.0326103 15.015 0.31739 17.045 1.01739 18.935C1.82239 21.035 2.97739 22.54 4.51739 23.485C6.23239 24.535 9.03239 25.13 12.2174 25.13C13.6524 25.13 15.0874 24.99 16.4874 24.745C18.4474 24.395 20.3374 23.695 22.0524 22.715C23.4874 21.875 24.7824 20.825 25.8674 19.6C27.6874 17.535 28.7724 15.225 29.5774 13.195H29.8924C31.8874 13.195 33.1124 12.39 33.8124 11.725C34.2674 11.305 34.6174 10.78 34.8274 10.185L34.9674 9.765L34.6524 9.52Z" fill="var(--fill-0, #7D7D7D)"/>
<path id="Vector_2" d="M3.22239 11.235H6.30239C6.44239 11.235 6.58239 11.13 6.58239 10.955V8.19C6.58239 8.05 6.47739 7.91 6.30239 7.91H3.22239C3.08239 7.91 2.94239 8.015 2.94239 8.19V10.955C2.97739 11.13 3.08239 11.235 3.22239 11.235ZM7.49239 11.235H10.5724C10.7124 11.235 10.8524 11.13 10.8524 10.955V8.19C10.8524 8.05 10.7474 7.91 10.5724 7.91H7.49239C7.35239 7.91 7.21239 8.015 7.21239 8.19V10.955C7.21239 11.13 7.35239 11.235 7.49239 11.235ZM11.7974 11.235H14.8774C15.0174 11.235 15.1574 11.13 15.1574 10.955V8.19C15.1574 8.05 15.0524 7.91 14.8774 7.91H11.7974C11.6574 7.91 11.5174 8.015 11.5174 8.19V10.955C11.5524 11.13 11.6574 11.235 11.7974 11.235ZM16.1024 11.235H19.1824C19.3224 11.235 19.4624 11.13 19.4624 10.955V8.19C19.4624 8.05 19.3574 7.91 19.1824 7.91H16.1024C15.9624 7.91 15.8224 8.015 15.8224 8.19V10.955C15.8224 11.13 15.9274 11.235 16.1024 11.235ZM7.49239 7.28H10.5724C10.7124 7.28 10.8524 7.175 10.8524 7V4.235C10.8524 4.095 10.7474 3.955 10.5724 3.955H7.49239C7.35239 3.955 7.21239 4.06 7.21239 4.235V7C7.21239 7.175 7.35239 7.28 7.49239 7.28ZM11.7974 7.28H14.8774C15.0174 7.28 15.1574 7.175 15.1574 7V4.235C15.1574 4.095 15.0524 3.955 14.8774 3.955H11.7974C11.6574 3.955 11.5174 4.06 11.5174 4.235V7C11.5524 7.175 11.6574 7.28 11.7974 7.28ZM16.1024 7.28H19.1824C19.3224 7.28 19.4624 7.175 19.4624 7V4.235C19.4624 4.095 19.3574 3.955 19.1824 3.955H16.1024C15.9624 3.955 15.8224 4.06 15.8224 4.235V7C15.8224 7.175 15.9274 7.28 16.1024 7.28ZM16.1024 3.325H19.1824C19.3224 3.325 19.4624 3.22 19.4624 3.045V0.28C19.4624 0.14 19.3574 9.53674e-08 19.1824 9.53674e-08H16.1024C15.9624 9.53674e-08 15.8224 0.105 15.8224 0.28V3.045C15.8224 3.22 15.9274 3.325 16.1024 3.325ZM20.4074 11.235H23.4874C23.6274 11.235 23.7674 11.13 23.7674 10.955V8.19C23.7674 8.05 23.6624 7.91 23.4874 7.91H20.4074C20.2674 7.91 20.1274 8.015 20.1274 8.19V10.955C20.1274 11.13 20.2324 11.235 20.4074 11.235Z" fill="var(--fill-0, #7D7D7D)"/>
</g>
</svg>
