<svg preserveAspectRatio="none" width="100%" height="100%" overflow="visible" style="display: block;" viewBox="0 0 35 35" fill="none" xmlns="http://www.w3.org/2000/svg">
<g id="Frame" clip-path="url(#clip0_9_219)">
<path id="Vector" d="M17.4307 20.58C19.1289 20.58 20.4802 19.215 20.4802 17.5C20.4802 15.785 19.1289 14.42 17.4307 14.42C15.7325 14.42 14.3812 15.785 14.3812 17.5C14.3812 19.215 15.7325 20.58 17.4307 20.58Z" fill="var(--fill-0, #727272)"/>
<path id="Vector_2" d="M17.4307 23.835C26.4754 23.835 33.8219 21 33.8219 17.5C33.8219 14 26.4754 11.165 17.4307 11.165C8.386 11.165 1.0395 14 1.0395 17.5C1.0395 21 8.386 23.835 17.4307 23.835Z" stroke="var(--stroke-0, #727272)" stroke-width="5"/>
<path id="Vector_3" d="M12.0246 20.65C16.5298 28.595 22.6285 33.6 25.6434 31.85C28.6237 30.1 27.411 22.26 22.8715 14.35C18.332 6.405 12.2325 1.4 9.2526 3.15C6.2377 4.9 7.4851 12.74 12.0246 20.65Z" stroke="var(--stroke-0, #727272)" stroke-width="5"/>
<path id="Vector_4" d="M12.0246 14.35C7.4851 22.26 6.27235 30.1 9.2526 31.85C12.2329 33.6 18.3316 28.595 22.8368 20.65C27.3763 12.74 28.6237 4.9 25.6438 3.15C22.6285 1.4 16.5298 6.405 12.0246 14.35Z" stroke="var(--stroke-0, #727272)" stroke-width="5"/>
</g>
<defs>
<clipPath id="clip0_9_219">
<rect width="35" height="35" fill="white"/>
</clipPath>
</defs>
</svg>
