<svg preserveAspectRatio="none" width="100%" height="100%" overflow="visible" style="display: block;" viewBox="0 0 34.9869 34.9825" fill="none" xmlns="http://www.w3.org/2000/svg">
<g id="Group">
<path id="Vector" d="M34.3262 15.9162L19.0662 0.65625C18.1912 -0.21875 16.7562 -0.21875 15.8812 0.65625L12.6962 3.84125L16.7212 7.86625C17.6662 7.55125 18.7162 7.76125 19.4862 8.49625C20.2212 9.23125 20.4312 10.3162 20.1162 11.2612L24.0012 15.1462C24.9462 14.8312 26.0312 15.0412 26.7662 15.7762C27.8162 16.8262 27.8162 18.5062 26.7662 19.5562C25.7162 20.6062 24.0362 20.6062 22.9862 19.5562C22.6119 19.1845 22.3557 18.7105 22.2499 18.1936C22.144 17.6768 22.1932 17.1402 22.3912 16.6512L18.7512 13.0462V22.5662C18.9962 22.7062 19.2412 22.8812 19.4512 23.0562C20.5012 24.1062 20.5012 25.7862 19.4512 26.8362C18.4012 27.8862 16.7212 27.8862 15.6712 26.8362C14.6212 25.7862 14.6212 24.1062 15.6712 23.0562C15.9162 22.8112 16.2312 22.6012 16.5462 22.4612V12.8712C16.2312 12.7312 15.9162 12.5212 15.6712 12.2762C14.8662 11.4712 14.6912 10.3163 15.0762 9.33625L11.1212 5.38125L0.65625 15.8462C-0.21875 16.7212 -0.21875 18.1562 0.65625 19.0312L15.9512 34.3262C16.8262 35.2012 18.2612 35.2012 19.1362 34.3262L34.3612 19.1012C35.2012 18.2262 35.2012 16.8262 34.3262 15.9162Z" fill="var(--fill-0, #757575)"/>
</g>
</svg>
